<?xml version="1.0" standalone="no"?><!DOCTYPE svg PUBLIC "-//W3C//DTD SVG 1.1//EN" "http://www.w3.org/Graphics/SVG/1.1/DTD/svg11.dtd"><svg t="1696915379603" class="icon" viewBox="0 0 2372 1024" version="1.1" xmlns="http://www.w3.org/2000/svg" p-id="9790" xmlns:xlink="http://www.w3.org/1999/xlink" width="148.25" height="64"><path d="M2030.933333 921.6c-40.96-10.24-59.733333-17.066667-59.733333-21.333333 0-2.56 13.653333-46.08 13.653333-46.08l13.653334 6.826666c47.786667 24.746667 128.853333 23.04 168.106666-2.56 18.773333-12.117333 34.986667-35.584 42.666667-59.306666 5.973333-20.309333 11.946667-95.658667 6.826667-95.658667-0.853333 0-10.24 8.96-20.48 19.968-58.026667 63.232-170.666667 56.234667-218.453334-13.738667-23.893333-35.242667-29.866667-57.258667-29.866666-116.565333 0-44.288 0.853333-56.490667 7.68-79.189333 11.093333-33.792 34.986667-69.888 58.88-88.149334 34.986667-26.026667 93.013333-36.352 133.973333-23.893333 20.48 6.229333 46.933333 24.405333 57.173333 39.765333 4.266667 6.144 8.533333 11.178667 10.24 11.178667 1.706667 0 2.56-10.922667 2.56-24.32v-24.234667h56.32V582.826667c0 166.144-0.853333 180.650667-7.68 208.298666-19.626667 78.421333-52.053333 112.554667-124.586666 128.768-37.546667 9.386667-80.213333 9.386667-110.933334 1.706667z m108.373334-205.312c25.6-7.509333 52.906667-32.512 66.56-61.013333 10.24-20.138667 10.24-23.381333 10.24-77.397334 0-51.626667-0.853333-57.941333-8.533334-74.752-18.773333-38.4-65.706667-65.28-104.96-59.733333-67.413333 9.472-106.666667 71.424-100.693333 158.805333 3.413333 50.346667 24.746667 89.344 56.32 105.642667 30.72 15.701333 49.493333 17.664 81.066667 8.448zM93.866667 791.722667L97.024 93.866667l5.546667 2.474666 180.138666 55.978667 1.450667 470.698667-175.616 155.392-2.56 5.717333 447.914667-234.069333-129.109334-65.536-74.666666-169.386667L763.306667 439.466667v203.349333L283.818667 924.16z m1056.426666-26.965334c-28.16-7.168-54.613333-23.893333-65.706666-41.216-4.266667-6.912-9.386667-12.629333-11.093334-12.629333-1.706667 0-3.413333 10.922667-3.413333 24.32v24.32H1015.466667l0.853333-262.144c0.853333-206.336 2.56-261.802667 5.973333-260.437333 2.56 0.938667 14.506667 4.522667 26.453334 7.936l21.333333 6.229333 0.853333 108.117333 0.853334 108.032 17.066666-21.162666c12.8-15.786667 23.893333-24.661333 42.666667-34.389334 24.746667-12.544 27.306667-13.056 65.706667-13.056 36.693333 0 40.96 0.853333 64 12.288 53.76 26.538667 80.213333 79.445333 79.36 163.498667 0 89.344-37.546667 158.634667-97.28 181.333333-21.333333 8.192-75.093333 13.312-93.013334 8.96z m67.413334-53.077333c45.226667-23.381333 72.533333-81.237333 68.266666-146.602667-2.56-32.938667-3.413333-38.656-13.653333-62.464-10.24-21.674667-27.306667-40.106667-46.933333-50.773333-22.186667-11.52-64.853333-11.264-88.746667 0.853333-25.6 12.288-49.493333 40.533333-58.88 68.864-9.386667 30.037333-10.24 99.669333-1.706667 127.829334 9.386667 29.184 40.96 59.562667 72.533334 69.802666 15.36 5.12 52.906667 1.194667 69.12-7.168z m199.68-307.370667h56.32l1.706666 355.242667h-58.026666z m153.6 177.578667V404.309333h56.32v27.989334c0 15.445333 0.853333 27.989333 2.56 27.904 1.706667 0 7.68-6.570667 12.8-14.506667 32.426667-46.506667 108.373333-63.232 162.133333-35.754667 16.213333 8.277333 25.6 16.213333 34.986667 29.354667 23.04 35.242667 23.893333 42.837333 25.6 188.416l1.706666 131.84h-56.32l-1.706666-124.330667c-0.853333-87.893333-2.56-128.768-5.973334-139.349333-6.826667-21.76-32.426667-44.714667-55.466666-50.261333-49.493333-11.776-102.4 22.101333-116.906667 74.496-1.706667 7.253333-3.413333 63.829333-3.413333 126.293333v113.152h-56.32V581.888z m-90.453334-298.154667a34.321067 34.321067 0 0 1-34.986666 34.389334 34.321067 34.321067 0 0 1-34.133334-34.389334 34.321067 34.321067 0 0 1 34.133334-34.304 34.321067 34.321067 0 0 1 34.986666 34.304z" fill="" p-id="9791"></path></svg>