<?xml version="1.0" standalone="no"?><!DOCTYPE svg PUBLIC "-//W3C//DTD SVG 1.1//EN" "http://www.w3.org/Graphics/SVG/1.1/DTD/svg11.dtd"><svg t="1696915651746" class="icon" viewBox="0 0 2592 1024" version="1.1" xmlns="http://www.w3.org/2000/svg" p-id="18537" width="162" height="64" xmlns:xlink="http://www.w3.org/1999/xlink"><path d="M430.690807 720.991813c87.668772 0 153.731743-28.683977 205.446737-82.578714 53.236023-53.295906 69.763743-127.910175 69.763743-188.27228 0-18.743392-1.437193-35.929825-4.311579-50.361638H430.690807V480.261988h192.571883c-5.748772 45.271579-20.899181 78.327018-43.798456 101.322106-28.07317 27.96538-71.859649 58.924912-148.773427 58.924912-118.550456 0-211.267368-95.573333-211.267368-214.141755 0-118.568421 92.716912-214.201637 211.267368-214.201637 63.907181 0 110.693801 25.21076 145.12655 57.547602l56.787087-56.769122C584.42255 167.013801 520.515368 131.74269 430.690807 131.74269 268.258058 131.74269 131.74269 263.904561 131.74269 426.367251c0 162.402807 136.515368 294.624561 298.948117 294.624562z m494.442292 0c104.855205 0 190.368187-80.482807 190.368188-189.769357 0-109.88538-85.512982-189.649591-190.368188-189.649591-105.034854 0-190.547836 79.764211-190.547836 189.649591 0 109.28655 85.512982 189.769357 190.547836 189.769357z m0-74.734035c-57.547602 0-107.190643-47.427368-107.190643-115.035322 0-68.206784 49.643041-114.855673 107.190643-114.855672 57.427836 0 107.010994 46.648889 107.010995 114.855672 0 67.607953-49.583158 115.035322-107.010995 115.035322z m415.288889 74.734035c104.915088 0 190.42807-80.482807 190.42807-189.769357 0-109.88538-85.512982-189.649591-190.42807-189.649591-104.974971 0-190.487953 79.764211-190.487953 189.649591 0 109.28655 85.512982 189.769357 190.487953 189.769357z m0-74.734035c-57.487719 0-107.13076-47.427368-107.13076-115.035322 0-68.206784 49.643041-114.855673 107.13076-114.855672 57.487719 0 107.070877 46.648889 107.070877 114.855672 0 67.607953-49.583158 115.035322-107.070877 115.035322zM1748.584795 891.299181c97.66924 0 180.427602-57.427836 180.427603-197.614035V353.070409h-79.105497v30.899649h-2.874386c-18.743392-22.276491-54.673216-42.397193-99.82503-42.397193-94.91462 0-181.804912 83.357193-181.804912 190.428071 0 106.412164 86.890292 188.990877 181.804912 188.990877 45.151813 0 81.081637-20.120702 99.82503-43.11579h2.874386v27.306667c0 72.638129-38.804211 111.382456-101.322106 111.382456-50.960468 0-82.638596-36.588538-95.633216-67.607953l-72.518363 30.240936c20.899181 50.361637 76.171228 112.101053 168.151579 112.101052z m5.688889-245.041403c-57.427836 0-105.633684-48.086082-105.633684-114.256842 0-66.829474 48.205848-115.634152 105.633684-115.634152 56.829006 0 101.381988 48.804678 101.381989 115.634152 0 66.17076-44.552982 114.256842-101.381989 114.256842z m315.523743-494.394386h-83.357193v557.630877h83.357193z m228.513684 569.128421c86.890292 0 137.25193-53.116257 158.091228-84.07579l-64.733567-43.055906c-21.498012 31.49848-50.960468 52.397661-93.357661 52.397661s-72.638129-19.402105-91.980351-57.48772l253.664562-104.97497-8.623158-21.498012c-15.809123-42.397193-64.014971-120.724211-162.402807-120.724211-97.729123 0-178.930526 76.949708-178.930527 189.649591 0 106.412164 80.482807 189.769357 188.272281 189.769357z m-105.633684-195.458246c-2.155789-73.236959 56.769123-110.66386 99.166316-110.663859 33.055439 0 61.080702 16.527719 70.482339 40.241403z m0 0" fill="" p-id="18538"></path></svg>